<svg width="256" height="192" viewBox="0 0 256 192" fill="none" xmlns="http://www.w3.org/2000/svg">
<g clip-path="url(#clip0_1084_37540)">
<mask id="mask0_1084_37540" style="mask-type:luminance" maskUnits="userSpaceOnUse" x="0" y="0" width="256" height="192">
<path d="M256 0H0V192H256V0Z" fill="white"/>
</mask>
<g mask="url(#mask0_1084_37540)">
<path d="M84.38 108.352C74.824 111.064 68.554 115.819 64.424 120.57C68.38 117.109 73.679 113.931 80.826 111.905C88.137 109.833 94.374 109.848 99.528 110.843V106.813C95.131 106.411 90.091 106.731 84.38 108.352ZM63.987 74.4748L28.497 83.8248C28.497 83.8248 29.143 84.7388 30.341 85.9578L60.433 78.0278C60.433 78.0278 60.006 83.5228 56.303 88.4378C63.308 83.1388 63.987 74.4748 63.987 74.4748ZM93.696 157.885C43.75 171.337 17.326 113.455 9.32599 83.4128C5.62999 69.5448 4.01599 59.0428 3.58599 52.2648C3.54508 51.6518 3.55344 51.0365 3.61099 50.4248C1.02099 50.5798 -0.220012 51.9268 0.0319879 55.8198C0.461988 62.5928 2.07599 73.0948 5.77199 86.9668C13.769 117.005 40.196 174.887 90.142 161.435C101.013 158.506 109.18 153.172 115.312 146.362C109.66 151.466 102.588 155.485 93.696 157.885ZM103.08 39.0498V42.6048H122.67C122.269 41.3458 121.864 40.2118 121.462 39.0498H103.08Z" fill="#2D4552"/>
<path d="M127.05 68.3253C135.86 70.8283 140.52 77.0053 142.983 82.4713L152.807 85.2613C152.807 85.2613 151.467 66.1293 134.162 61.2143C117.973 56.6143 108.011 70.2093 106.799 71.9683C111.509 68.6133 118.385 65.8663 127.05 68.3253ZM205.247 82.5593C189.043 77.9393 179.085 91.5623 177.891 93.2963C182.604 89.9453 189.477 87.1973 198.138 89.6673C206.935 92.1733 211.59 98.3433 214.061 103.813L223.898 106.613C223.898 106.613 222.537 87.4783 205.247 82.5593ZM195.487 133.002L113.769 110.157C113.769 110.157 114.654 114.642 118.048 120.45L186.851 139.684C192.515 136.407 195.487 133.002 195.487 133.002ZM138.832 182.176C74.1272 164.828 81.9492 82.3863 92.4192 43.3203C96.7302 27.2203 101.162 15.2543 104.838 7.23231C102.645 6.78131 100.828 7.93631 99.0342 11.5863C95.1302 19.5003 90.1402 32.3873 85.3122 50.4273C74.8452 89.4933 67.0222 171.933 131.724 189.281C162.221 197.451 185.98 185.034 203.69 165.532C186.88 180.758 165.416 189.295 138.832 182.176Z" fill="#2D4552"/>
<path d="M103.081 138.565V121.928L56.8579 135.036C56.8579 135.036 60.2729 115.19 84.3799 108.352C91.6909 106.28 97.9289 106.294 103.081 107.289V39.0499H126.226C123.706 31.2629 121.268 25.2679 119.22 21.1019C115.833 14.2069 112.361 18.7779 104.479 25.3709C98.9269 30.0089 84.8959 39.9039 63.7809 45.5929C42.6669 51.2869 25.5959 49.7769 18.4739 48.5429C8.37687 46.8009 3.09587 44.5829 3.58987 52.2639C4.01987 59.0379 5.63287 69.5409 9.32987 83.4119C17.3259 113.451 43.7539 171.332 93.6999 157.88C106.746 154.365 115.954 147.416 122.337 138.56H103.081V138.564V138.565ZM28.4929 83.8249L63.9869 74.4749C63.9869 74.4749 62.9529 88.1289 49.6469 91.6369C36.3369 95.1409 28.4929 83.8249 28.4929 83.8249Z" fill="#E2574C"/>
<path d="M236.664 39.8399C227.438 41.4569 205.303 43.4719 177.948 36.1399C150.585 28.8119 132.431 15.9959 125.238 9.97195C115.041 1.43195 110.556 -4.50405 106.142 4.47395C102.24 12.3919 97.2489 25.2789 92.4189 43.3199C81.9529 82.3859 74.1299 164.825 138.832 182.173C203.519 199.506 237.958 124.195 248.425 85.1259C253.255 67.0889 255.373 53.4309 255.955 44.6239C256.62 34.6479 249.767 37.5439 236.664 39.8399ZM106.668 72.1609C106.668 72.1609 116.864 56.3019 134.158 61.2179C151.463 66.1329 152.803 85.2639 152.803 85.2639L106.668 72.1609ZM148.883 143.324C118.464 134.414 113.773 110.157 113.773 110.157L195.487 133.003C195.487 132.999 178.993 152.123 148.883 143.323V143.324ZM177.773 93.4739C177.773 93.4739 187.956 77.6269 205.247 82.5559C222.537 87.4789 223.898 106.61 223.898 106.61L177.774 93.4739H177.773Z" fill="#2EAD33"/>
<path d="M86.9279 126.51L56.8579 135.032C56.8579 135.032 60.1239 116.423 82.2759 109.049L65.2499 45.1475L63.7789 45.5945C42.6639 51.2885 25.5939 49.7785 18.4719 48.5445C8.37494 46.8035 3.09294 44.5845 3.58694 52.2665C4.01694 59.0405 5.63094 69.5425 9.32694 83.4135C17.3239 113.452 43.7519 171.333 93.6969 157.881L95.1679 157.419L86.9289 126.509L86.9279 126.51ZM28.4929 83.8255L63.9869 74.4745C63.9869 74.4745 62.9529 88.1285 49.6469 91.6365C36.3369 95.1405 28.4929 83.8255 28.4929 83.8255Z" fill="#D65348"/>
<path d="M150.255 143.658L148.879 143.323C118.46 134.413 113.769 110.157 113.769 110.157L155.906 121.935L178.214 36.2112L177.944 36.1412C150.582 28.8122 132.428 15.9962 125.234 9.97123C115.038 1.43123 110.552 -4.50377 106.138 4.47423C102.24 12.3922 97.2489 25.2792 92.4189 43.3202C81.9529 82.3862 74.1299 164.825 138.832 182.172L140.158 182.472L150.255 143.658ZM106.668 72.1602C106.668 72.1602 116.864 56.3012 134.158 61.2172C151.463 66.1322 152.803 85.2632 152.803 85.2632L106.668 72.1602Z" fill="#1D8D22"/>
<path d="M88.4602 126.072L80.3962 128.361C82.3022 139.101 85.6602 149.408 90.9302 158.513C91.8482 158.311 92.7582 158.137 93.6922 157.881C96.1412 157.221 98.4122 156.402 100.598 155.51C94.7082 146.77 90.8122 136.706 88.4602 126.072ZM85.3122 50.4282C81.1682 65.8952 77.4602 88.1582 78.4812 110.488C80.3072 109.695 82.2372 108.956 84.3812 108.348L85.8732 108.014C84.0532 84.1622 87.9872 59.8572 92.4192 43.3202C93.4699 39.398 94.5944 35.496 95.7922 31.6162C93.8406 32.8643 91.8482 34.0473 89.8182 35.1632C88.1843 40.2117 86.6818 45.3017 85.3122 50.4282Z" fill="#C04B41"/>
</g>
</g>
<defs>
<clipPath id="clip0_1084_37540">
<rect width="256" height="192" fill="white"/>
</clipPath>
</defs>
</svg>
